<?xml version="1.0" encoding="UTF-8" standalone="no"?>
<!-- Created with Inkscape (http://www.inkscape.org/) -->

<svg
   width="797.00677"
   height="409.09296"
   id="svg8265"
   sodipodi:version="0.32"
   inkscape:version="1.3.2 (091e20e, 2023-11-25)"
   sodipodi:docname="Re_entry.svg"
   inkscape:output_extension="org.inkscape.output.svg.inkscape"
   inkscape:export-filename="D:\Users\Jonas\Documents\Cardionetworks\ECGpedia\illustraties\re-entry.png"
   inkscape:export-xdpi="90"
   inkscape:export-ydpi="90"
   version="1.0"
   xmlns:inkscape="http://www.inkscape.org/namespaces/inkscape"
   xmlns:sodipodi="http://sodipodi.sourceforge.net/DTD/sodipodi-0.dtd"
   xmlns:xlink="http://www.w3.org/1999/xlink"
   xmlns="http://www.w3.org/2000/svg"
   xmlns:svg="http://www.w3.org/2000/svg"
   xmlns:rdf="http://www.w3.org/1999/02/22-rdf-syntax-ns#"
   xmlns:cc="http://creativecommons.org/ns#"
   xmlns:dc="http://purl.org/dc/elements/1.1/">
  <sodipodi:namedview
     id="base"
     pagecolor="#ffffff"
     bordercolor="#666666"
     borderopacity="1.0"
     inkscape:pageopacity="0.0"
     inkscape:pageshadow="2"
     inkscape:zoom="0.6"
     inkscape:cx="588.33333"
     inkscape:cy="72.5"
     inkscape:current-layer="layer1"
     inkscape:document-units="px"
     inkscape:window-width="1920"
     inkscape:window-height="1011"
     inkscape:window-x="0"
     inkscape:window-y="32"
     width="1000px"
     height="750px"
     showgrid="false"
     inkscape:window-maximized="1"
     inkscape:showpageshadow="2"
     inkscape:pagecheckerboard="0"
     inkscape:deskcolor="#d1d1d1" />
  <defs
     id="defs8267">
    <marker
       style="overflow:visible"
       orient="auto"
       id="Arrow1Send"
       refY="0"
       inkscape:stockid="Arrow1Send"
       refX="0">
      <path
         style="fill-rule:evenodd;stroke:#000000;stroke-width:1pt;marker-start:none"
         transform="matrix(-0.2,0,0,-0.2,-1.2,0)"
         d="M 0,0 5,-5 -12.5,0 5,5 Z"
         id="path3576" />
    </marker>
    <linearGradient
       id="linearGradient5594"
       inkscape:collect="always">
      <stop
         offset="0"
         style="stop-color:#0044aa;stop-opacity:1;"
         id="stop5596" />
      <stop
         offset="1"
         style="stop-color:#0044aa;stop-opacity:0;"
         id="stop5598" />
    </linearGradient>
    <linearGradient
       id="linearGradient6965"
       gradientUnits="userSpaceOnUse"
       inkscape:collect="always"
       x1="-578.35132"
       x2="-480.41666"
       xlink:href="#linearGradient5594"
       gradientTransform="matrix(0.6902227,0,0,0.6902227,266.60501,-314.90572)"
       y1="1215.7137"
       y2="1298.3334" />
    <radialGradient
       r="819.20001"
       id="SVGID_4_"
       gradientUnits="userSpaceOnUse"
       cy="385.2998"
       cx="-0.036400001"
       gradientTransform="matrix(0.0435,0,0,0.0417,181.2243,92.7401)">
      <stop
         offset="0"
         style="stop-color:#A58775"
         id="stop3984" />
      <stop
         offset="1"
         style="stop-color:#BC9881"
         id="stop3986" />
    </radialGradient>
    <radialGradient
       r="819.20001"
       id="SVGID_3_"
       gradientUnits="userSpaceOnUse"
       cy="385.2998"
       cx="-0.036400001"
       gradientTransform="matrix(0.0424,0,0,0.039,176.909,44.8973)">
      <stop
         offset="0"
         style="stop-color:#A58775"
         id="stop3977" />
      <stop
         offset="0.6667"
         style="stop-color:#BC9881"
         id="stop3979" />
    </radialGradient>
    <radialGradient
       r="819.20001"
       id="SVGID_2_"
       gradientUnits="userSpaceOnUse"
       cy="385.2998"
       cx="-0.036400001"
       gradientTransform="matrix(0.0463,0,0,0.0463,228.2637,74.3615)">
      <stop
         offset="0"
         style="stop-color:#A58775"
         id="stop3954" />
      <stop
         offset="0.7529"
         style="stop-color:#BC9881"
         id="stop3956" />
    </radialGradient>
    <radialGradient
       r="819.20001"
       id="SVGID_1_"
       gradientUnits="userSpaceOnUse"
       cy="385.2998"
       cx="-0.036400001"
       gradientTransform="matrix(0.041,0,0,0.041,223.1893,35.3087)">
      <stop
         offset="0"
         style="stop-color:#A58775"
         id="stop3937" />
      <stop
         offset="0.9294"
         style="stop-color:#BC9881"
         id="stop3939" />
    </radialGradient>
    <marker
       style="overflow:visible"
       orient="auto"
       id="Arrow1Mend"
       refY="0"
       inkscape:stockid="Arrow1Mend"
       refX="0">
      <path
         style="fill-rule:evenodd;stroke:#000000;stroke-width:1pt;marker-start:none"
         transform="matrix(-0.4,0,0,-0.4,-4,0)"
         d="M 0,0 5,-5 -12.5,0 5,5 Z"
         id="path5119" />
    </marker>
    <marker
       style="overflow:visible"
       orient="auto"
       id="Arrow1Mstart"
       refY="0"
       inkscape:stockid="Arrow1Mstart"
       refX="0">
      <path
         style="fill-rule:evenodd;stroke:#000000;stroke-width:1pt;marker-start:none"
         transform="matrix(0.4,0,0,0.4,4,0)"
         d="M 0,0 5,-5 -12.5,0 5,5 Z"
         id="path5116" />
    </marker>
    <marker
       style="overflow:visible"
       id="Arrow2Mend"
       orient="auto"
       refY="0"
       inkscape:stockid="Arrow2Mend"
       refX="0">
      <path
         style="font-size:12px;fill-rule:evenodd;stroke-width:0.625;stroke-linejoin:round"
         id="path5134"
         d="M 8.7185878,4.0337352 -2.2072895,0.01601326 8.7185884,-4.0017078 C 6.97309,-1.6296469 6.9831476,1.6157441 8.7185878,4.0337352 Z"
         transform="scale(-0.6)" />
    </marker>
    <marker
       style="overflow:visible"
       id="Arrow2Lend"
       orient="auto"
       refY="0"
       inkscape:stockid="Arrow2Lend"
       refX="0">
      <path
         style="font-size:12px;fill-rule:evenodd;stroke-width:0.625;stroke-linejoin:round"
         id="path5128"
         d="M 8.7185878,4.0337352 -2.2072895,0.01601326 8.7185884,-4.0017078 C 6.97309,-1.6296469 6.9831476,1.6157441 8.7185878,4.0337352 Z"
         transform="matrix(-1.1,0,0,-1.1,-1.1,0)" />
    </marker>
    <marker
       style="overflow:visible"
       id="Arrow1Lend"
       orient="auto"
       refY="0"
       inkscape:stockid="Arrow1Lend"
       refX="0">
      <path
         style="fill-rule:evenodd;stroke:#000000;stroke-width:1pt;marker-start:none"
         id="path5110"
         d="M 0,0 5,-5 -12.5,0 5,5 Z"
         transform="matrix(-0.8,0,0,-0.8,-10,0)" />
    </marker>
    <marker
       style="overflow:visible"
       id="Arrow2Mendw"
       orient="auto"
       refY="0"
       inkscape:stockid="Arrow2Mendw"
       refX="0">
      <path
         style="font-size:12px;fill:#ff0000;fill-rule:evenodd;stroke:#ff0000;stroke-width:0.625;stroke-linejoin:round"
         id="path22453"
         d="M 8.7185878,4.0337352 -2.2072895,0.01601326 8.7185884,-4.0017078 C 6.97309,-1.6296469 6.9831476,1.6157441 8.7185878,4.0337352 Z"
         transform="scale(-0.6)" />
    </marker>
    <marker
       style="overflow:visible"
       id="Arrow2MendQ"
       orient="auto"
       refY="0"
       inkscape:stockid="Arrow2MendQ"
       refX="0">
      <path
         style="font-size:12px;fill:#ff0000;fill-rule:evenodd;stroke:#ff0000;stroke-width:0.625;stroke-linejoin:round"
         id="path22679"
         d="M 8.7185878,4.0337352 -2.2072895,0.01601326 8.7185884,-4.0017078 C 6.97309,-1.6296469 6.9831476,1.6157441 8.7185878,4.0337352 Z"
         transform="scale(-0.6)" />
    </marker>
    <marker
       style="overflow:visible"
       id="Arrow2MendO"
       orient="auto"
       refY="0"
       inkscape:stockid="Arrow2MendO"
       refX="0">
      <path
         style="font-size:12px;fill:#ff0000;fill-rule:evenodd;stroke:#ff0000;stroke-width:0.625;stroke-linejoin:round"
         id="path22908"
         d="M 8.7185878,4.0337352 -2.2072895,0.01601326 8.7185884,-4.0017078 C 6.97309,-1.6296469 6.9831476,1.6157441 8.7185878,4.0337352 Z"
         transform="scale(-0.6)" />
    </marker>
    <marker
       style="overflow:visible"
       id="Arrow2MendI"
       orient="auto"
       refY="0"
       inkscape:stockid="Arrow2MendI"
       refX="0">
      <path
         style="font-size:12px;fill:#0000ff;fill-rule:evenodd;stroke:#0000ff;stroke-width:0.625;stroke-linejoin:round"
         id="path23141"
         d="M 8.7185878,4.0337352 -2.2072895,0.01601326 8.7185884,-4.0017078 C 6.97309,-1.6296469 6.9831476,1.6157441 8.7185878,4.0337352 Z"
         transform="scale(-0.6)" />
    </marker>
    <marker
       style="overflow:visible"
       id="Arrow2Mendr"
       orient="auto"
       refY="0"
       inkscape:stockid="Arrow2Mendr"
       refX="0">
      <path
         style="font-size:12px;fill:#0000ff;fill-rule:evenodd;stroke:#0000ff;stroke-width:0.625;stroke-linejoin:round"
         id="path23378"
         d="M 8.7185878,4.0337352 -2.2072895,0.01601326 8.7185884,-4.0017078 C 6.97309,-1.6296469 6.9831476,1.6157441 8.7185878,4.0337352 Z"
         transform="scale(-0.6)" />
    </marker>
    <marker
       style="overflow:visible"
       orient="auto"
       id="Arrow1Sendd"
       refY="0"
       inkscape:stockid="Arrow1Sendd"
       refX="0">
      <path
         style="fill:#008000;fill-rule:evenodd;stroke:#008000;stroke-width:1pt;marker-start:none"
         transform="matrix(-0.2,0,0,-0.2,-1.2,0)"
         d="M 0,0 5,-5 -12.5,0 5,5 Z"
         id="path7805" />
    </marker>
    <marker
       style="overflow:visible"
       orient="auto"
       id="Arrow1SendE"
       refY="0"
       inkscape:stockid="Arrow1SendE"
       refX="0">
      <path
         style="fill:#008000;fill-rule:evenodd;stroke:#008000;stroke-width:1pt;marker-start:none"
         transform="matrix(-0.2,0,0,-0.2,-1.2,0)"
         d="M 0,0 5,-5 -12.5,0 5,5 Z"
         id="path10102" />
    </marker>
    <marker
       style="overflow:visible"
       orient="auto"
       id="Arrow1Sendn"
       refY="0"
       inkscape:stockid="Arrow1Sendn"
       refX="0">
      <path
         style="fill:#008000;fill-rule:evenodd;stroke:#008000;stroke-width:1pt;marker-start:none"
         transform="matrix(-0.2,0,0,-0.2,-1.2,0)"
         d="M 0,0 5,-5 -12.5,0 5,5 Z"
         id="path10345" />
    </marker>
    <marker
       style="overflow:visible"
       orient="auto"
       id="Arrow1SendK"
       refY="0"
       inkscape:stockid="Arrow1SendK"
       refX="0">
      <path
         style="fill:#008000;fill-rule:evenodd;stroke:#008000;stroke-width:1pt;marker-start:none"
         transform="matrix(-0.2,0,0,-0.2,-1.2,0)"
         d="M 0,0 5,-5 -12.5,0 5,5 Z"
         id="path10592" />
    </marker>
    <marker
       style="overflow:visible"
       orient="auto"
       id="Arrow1SenddG"
       refY="0"
       inkscape:stockid="Arrow1SenddG"
       refX="0">
      <path
         style="fill:#0000ff;fill-rule:evenodd;stroke:#0000ff;stroke-width:1pt;marker-start:none"
         transform="matrix(-0.2,0,0,-0.2,-1.2,0)"
         d="M 0,0 5,-5 -12.5,0 5,5 Z"
         id="path10878" />
    </marker>
    <marker
       style="overflow:visible"
       orient="auto"
       id="Arrow1SendKD"
       refY="0"
       inkscape:stockid="Arrow1SendKD"
       refX="0">
      <path
         style="fill:#0000ff;fill-rule:evenodd;stroke:#0000ff;stroke-width:1pt;marker-start:none"
         transform="matrix(-0.2,0,0,-0.2,-1.2,0)"
         d="M 0,0 5,-5 -12.5,0 5,5 Z"
         id="path11149" />
    </marker>
    <marker
       style="overflow:visible"
       orient="auto"
       id="Arrow1SendE0"
       refY="0"
       inkscape:stockid="Arrow1SendE0"
       refX="0">
      <path
         style="fill:#0000ff;fill-rule:evenodd;stroke:#0000ff;stroke-width:1pt;marker-start:none"
         transform="matrix(-0.2,0,0,-0.2,-1.2,0)"
         d="M 0,0 5,-5 -12.5,0 5,5 Z"
         id="path11424" />
    </marker>
    <marker
       style="overflow:visible"
       orient="auto"
       id="Arrow1SendnN"
       refY="0"
       inkscape:stockid="Arrow1SendnN"
       refX="0">
      <path
         style="fill:#0000ff;fill-rule:evenodd;stroke:#0000ff;stroke-width:1pt;marker-start:none"
         transform="matrix(-0.2,0,0,-0.2,-1.2,0)"
         d="M 0,0 5,-5 -12.5,0 5,5 Z"
         id="path11427" />
    </marker>
    <marker
       style="overflow:visible"
       orient="auto"
       id="Arrow1SendEz"
       refY="0"
       inkscape:stockid="Arrow1SendEz"
       refX="0">
      <path
         style="fill:#0000ff;fill-rule:evenodd;stroke:#0000ff;stroke-width:1pt;marker-start:none"
         transform="matrix(-0.2,0,0,-0.2,-1.2,0)"
         d="M 0,0 5,-5 -12.5,0 5,5 Z"
         id="path11430" />
    </marker>
    <marker
       style="overflow:visible"
       orient="auto"
       id="Arrow1SendnR"
       refY="0"
       inkscape:stockid="Arrow1SendnR"
       refX="0">
      <path
         style="fill:#0000ff;fill-rule:evenodd;stroke:#0000ff;stroke-width:1pt;marker-start:none"
         transform="matrix(-0.2,0,0,-0.2,-1.2,0)"
         d="M 0,0 5,-5 -12.5,0 5,5 Z"
         id="path11433" />
    </marker>
    <marker
       style="overflow:visible"
       orient="auto"
       id="Arrow1Sendnz"
       refY="0"
       inkscape:stockid="Arrow1Sendnz"
       refX="0">
      <path
         style="fill:#0000ff;fill-rule:evenodd;stroke:#0000ff;stroke-width:1pt;marker-start:none"
         transform="matrix(-0.2,0,0,-0.2,-1.2,0)"
         d="M 0,0 5,-5 -12.5,0 5,5 Z"
         id="path11436" />
    </marker>
  </defs>
  <metadata
     id="metadata8270">
    <rdf:RDF>
      <cc:Work
         rdf:about="">
        <dc:format>image/svg+xml</dc:format>
        <dc:type
           rdf:resource="http://purl.org/dc/dcmitype/StillImage" />
      </cc:Work>
    </rdf:RDF>
  </metadata>
  <g
     inkscape:label="Layer 1"
     id="layer1"
     inkscape:groupmode="layer"
     transform="translate(-185.90654,-199.39651)">
    <g
       id="g11667"
       transform="matrix(1.0864229,0,0,1.0864229,937.5843,88.994733)">
      <path
         id="path2551"
         sodipodi:nodetypes="ccscc"
         d="M -640.41667,104.58334 -640.83333,166.66667 C -642.33032,167.4032 -643.78638,168.16903 -645.20165,168.96258 -697.42913,198.24712 -694.10635,265.29789 -642.08333,291.66667 V 353.75"
         style="fill:none;fill-rule:evenodd;stroke:#000000;stroke-width:3;stroke-linecap:butt;stroke-linejoin:miter;stroke-miterlimit:4;stroke-dasharray:none;stroke-opacity:1" />
      <path
         id="path2555"
         sodipodi:nodetypes="cccc"
         d="M -597.01185,105.00001 -596.59519,167.08334 C -539.85507,195.00001 -541.91244,265.00001 -595.34519,292.08334 V 354.16667"
         style="fill:none;fill-rule:evenodd;stroke:#000000;stroke-width:3;stroke-linecap:butt;stroke-linejoin:miter;stroke-miterlimit:4;stroke-dasharray:none;stroke-opacity:1" />
      <path
         id="path2557"
         sodipodi:nodetypes="cccc"
         d="M -618.33333,107.91667 -619.58333,185.41667 C -551.47585,184.58228 -556.15051,276.64632 -620,277.08334 L -620.83333,335.83334"
         style="fill:none;fill-rule:evenodd;stroke:#0000ff;stroke-width:4;stroke-linecap:butt;stroke-linejoin:miter;stroke-miterlimit:4;stroke-dasharray:none;stroke-opacity:1;marker-end:url(#Arrow1SenddG)" />
      <ellipse
         transform="matrix(0.995209,0,0,1.1490573,-798.29929,-78.38344)"
         id="path3758"
         style="fill:none;fill-opacity:1;fill-rule:evenodd;stroke:#000000;stroke-width:4;stroke-linecap:round;stroke-linejoin:round;stroke-miterlimit:4;stroke-dasharray:none;stroke-opacity:1"
         cx="181.04167"
         cy="267.29166"
         rx="28.958334"
         ry="25.625" />
      <path
         id="path4761"
         d="M -620.83333,186.25 C -627.28642,187.78556 -633.20918,184.2142 -639.54579,184.03646 -644.51064,182.92029 -650.09623,182.97142 -654.44113,185.91916 -658.42241,191.79035 -656.46539,198.72134 -656.66764,205.23106 -659.38739,213.56092 -668.66728,217.80784 -670.23646,226.55589 -670.34976,230.17338 -670.95446,233.99681 -669.76281,237.48318 -665.26449,243.54473 -655.9077,241.76381 -654.70692,250.9368 -652.99242,258.52316 -657.80419,268.61263 -652.08333,274.58334 -648.52957,276.53582 -644.41631,277.86167 -640.36505,278.31771 -638.15919,278.48778 -635.81386,277.57555 -633.75,278.75"
         style="fill:none;fill-rule:evenodd;stroke:#0000ff;stroke-width:4;stroke-linecap:butt;stroke-linejoin:miter;stroke-miterlimit:4;stroke-dasharray:none;stroke-opacity:1"
         sodipodi:nodetypes="cccccccccc" />
      <path
         id="path4763"
         d="M -632.70833,273.75 -632.5,286.875"
         style="fill:none;fill-rule:evenodd;stroke:#000000;stroke-width:3;stroke-linecap:round;stroke-linejoin:miter;stroke-miterlimit:4;stroke-dasharray:none;stroke-opacity:1" />
    </g>
    <path
       style="fill:none;fill-rule:evenodd;stroke:#000000;stroke-width:3.25927;stroke-linecap:butt;stroke-linejoin:miter;stroke-miterlimit:4;stroke-dasharray:none;stroke-opacity:1"
       d="M 453.50587,202.8428 453.0532,270.29156 C 451.42684,271.09174 449.84494,271.92375 448.30736,272.78588 391.56624,304.60128 395.17619,377.44677 451.69517,406.09442 V 473.54317"
       sodipodi:nodetypes="ccscc"
       id="path10036" />
    <path
       style="fill:none;fill-rule:evenodd;stroke:#000000;stroke-width:3.25927;stroke-linecap:butt;stroke-linejoin:miter;stroke-miterlimit:4;stroke-dasharray:none;stroke-opacity:1"
       d="M 500.66186,203.29548 501.11453,270.74423 C 562.7583,301.07354 560.52312,377.12315 502.47256,406.5471 V 473.99585"
       sodipodi:nodetypes="cccc"
       id="path10038" />
    <ellipse
       style="fill:none;fill-opacity:1;fill-rule:evenodd;stroke:#000000;stroke-width:4;stroke-linecap:round;stroke-linejoin:round;stroke-miterlimit:4;stroke-dasharray:none;stroke-opacity:1"
       id="path10040"
       transform="matrix(1.0812178,0,0,1.2483622,281.97859,4.0635115)"
       cx="181.04167"
       cy="267.29166"
       rx="28.958334"
       ry="25.625" />
    <path
       style="fill:none;fill-rule:evenodd;stroke:#0000ff;stroke-width:3.25927;stroke-linecap:butt;stroke-linejoin:miter;stroke-miterlimit:4;stroke-dasharray:none;stroke-opacity:1;marker-mid:none;marker-end:url(#Arrow1SendKD)"
       id="path10042"
       sodipodi:nodetypes="cczzzzzzcc"
       d="M 475.72584,202.61647 474.82049,280.0241 C 474.82049,280.0241 460.2768,289.49479 453.09203,289.07762 445.90727,288.66046 443.25325,285.12518 436.34302,291.34101 429.43278,297.55684 442.8494,304.72022 434.07964,314.88017 425.30987,325.04011 410.51909,336.5155 416.87794,346.11482 423.23678,355.71415 436.08291,345.24936 441.84714,360.12722 447.36643,374.37289 440.91684,380.53475 447.62903,388.66639 454.34121,396.79803 477.98923,398.62527 477.98923,398.62527 V 461.54726" />
    <path
       style="fill:none;fill-rule:evenodd;stroke:#000000;stroke-width:1.08642px;stroke-linecap:butt;stroke-linejoin:miter;stroke-opacity:1;marker-end:url(#Arrow1Send)"
       id="path10044"
       sodipodi:nodetypes="cc"
       d="M 476.17852,280.0241 C 482.46554,278.67779 493.18216,282.58936 499.02258,287.98477" />
    <path
       style="fill:none;fill-rule:evenodd;stroke:#000000;stroke-width:1.08642px;stroke-linecap:butt;stroke-linejoin:miter;stroke-opacity:1"
       d="M 503.99959,283.11352 497.35869,294.6159"
       id="path10046" />
    <path
       style="fill:none;fill-rule:evenodd;stroke:#000000;stroke-width:1.08642px;stroke-linecap:butt;stroke-linejoin:miter;stroke-opacity:1;marker-end:url(#Arrow1Send)"
       id="path10048"
       sodipodi:nodetypes="cc"
       d="M 478.17225,398.65352 C 479.09627,399.22964 498.1269,397.56135 505.97771,386.60853" />
    <path
       style="fill:none;fill-rule:evenodd;stroke:#000000;stroke-width:1.08642px;stroke-linecap:butt;stroke-linejoin:miter;stroke-opacity:1"
       d="M 500.63865,377.22011 515.84294,390.82395"
       id="path10050" />
    <path
       style="fill:none;fill-rule:evenodd;stroke:#000000;stroke-width:3.25927;stroke-linecap:butt;stroke-linejoin:miter;stroke-miterlimit:4;stroke-dasharray:none;stroke-opacity:1"
       d="M 665.19081,202.8428 664.73815,270.29156 C 663.11178,271.09174 661.52988,271.92375 659.9923,272.78588 603.25117,304.60128 606.86112,377.44677 663.38012,406.09442 V 473.54317"
       sodipodi:nodetypes="ccscc"
       id="path9005" />
    <path
       style="fill:none;fill-rule:evenodd;stroke:#000000;stroke-width:3.25927;stroke-linecap:butt;stroke-linejoin:miter;stroke-miterlimit:4;stroke-dasharray:none;stroke-opacity:1"
       d="M 712.3468,203.29548 712.79947,270.74424 C 774.44324,301.07354 772.20807,377.12315 714.1575,406.5471 V 473.99585"
       sodipodi:nodetypes="cccc"
       id="path9007" />
    <ellipse
       style="fill:none;fill-opacity:1;fill-rule:evenodd;stroke:#000000;stroke-width:4;stroke-linecap:round;stroke-linejoin:round;stroke-miterlimit:4;stroke-dasharray:none;stroke-opacity:1"
       id="path9011"
       transform="matrix(1.0812178,0,0,1.2483622,493.66352,4.0635149)"
       cx="181.04167"
       cy="267.29166"
       rx="28.958334"
       ry="25.625" />
    <path
       style="fill:none;fill-rule:evenodd;stroke:#0000ff;stroke-width:3.25927;stroke-linecap:butt;stroke-linejoin:miter;stroke-miterlimit:4;stroke-dasharray:none;stroke-opacity:1;marker-mid:none;marker-end:url(#Arrow1SendnR)"
       id="path9017"
       sodipodi:nodetypes="cczzzzzzcc"
       d="M 687.41078,202.61647 686.50542,280.0241 C 686.50542,280.0241 671.96173,289.49479 664.77696,289.07762 657.59221,288.66046 654.93819,285.12518 648.02795,291.34101 641.11771,297.55684 654.53434,304.72022 645.76457,314.88017 636.9948,325.04011 622.20403,336.5155 628.56287,346.11482 634.92171,355.71415 643.8461,346.71489 650.19874,355.12722 656.95892,364.07922 652.60177,380.53475 659.31396,388.66639 666.02615,396.79803 689.67416,398.62527 689.67416,398.62527 V 461.54726" />
    <path
       style="fill:none;fill-rule:evenodd;stroke:#000000;stroke-width:1.08642px;stroke-linecap:butt;stroke-linejoin:miter;stroke-opacity:1;marker-end:url(#Arrow1Send)"
       id="path10024"
       sodipodi:nodetypes="cc"
       d="M 702.24073,272.02184 C 695.95369,270.67553 681.09864,270.05091 675.25823,275.44632" />
    <path
       style="fill:none;fill-rule:evenodd;stroke:#000000;stroke-width:1.08642px;stroke-linecap:butt;stroke-linejoin:miter;stroke-opacity:1"
       d="M 669.9384,270.3099 676.57929,281.81229"
       id="path10028" />
    <path
       style="fill:none;fill-rule:evenodd;stroke:#0000ff;stroke-width:3.25927;stroke-linecap:butt;stroke-linejoin:miter;stroke-miterlimit:4;stroke-dasharray:none;stroke-opacity:1;marker-end:url(#Arrow1SendE0)"
       id="path10030"
       sodipodi:nodetypes="ccc"
       d="M 689.85718,398.65352 C 761.22641,387.83997 756.52198,295.30091 702.69851,272.19586 L 702.05833,233.78502" />
    <path
       style="fill:none;fill-rule:evenodd;stroke:#000000;stroke-width:1.08642px;stroke-linecap:butt;stroke-linejoin:miter;stroke-opacity:1;marker-end:url(#Arrow1Send)"
       id="path10054"
       sodipodi:nodetypes="cc"
       d="M 688.17054,280.13267 C 694.57073,280.03122 696.1889,280.40237 702.02933,285.79778" />
    <path
       style="fill:none;fill-rule:evenodd;stroke:#000000;stroke-width:1.08642px;stroke-linecap:butt;stroke-linejoin:miter;stroke-opacity:1"
       d="M 706.68625,281.5667 700.04535,293.06908"
       id="path10056" />
    <g
       id="g11696"
       transform="matrix(1.0864229,0,0,1.0864229,1075.8633,88.768662)">
      <path
         id="path10793"
         sodipodi:nodetypes="ccscc"
         d="M -183.15846,102.05348 -183.57512,164.13681 C -185.07211,164.87334 -186.52817,165.63917 -187.94344,166.43272 -240.17092,195.71726 -236.84814,262.76803 -184.82512,289.13681 V 351.22014"
         style="fill:none;fill-rule:evenodd;stroke:#000000;stroke-width:3;stroke-linecap:butt;stroke-linejoin:miter;stroke-miterlimit:4;stroke-dasharray:none;stroke-opacity:1" />
      <path
         id="path10795"
         sodipodi:nodetypes="cccc"
         d="M -139.75364,102.47015 -139.33698,164.55348 C -82.596862,192.47015 -84.654232,262.47015 -138.08698,289.55348 V 351.63681"
         style="fill:none;fill-rule:evenodd;stroke:#000000;stroke-width:3;stroke-linecap:butt;stroke-linejoin:miter;stroke-miterlimit:4;stroke-dasharray:none;stroke-opacity:1" />
      <ellipse
         transform="matrix(0.995209,0,0,1.1490573,-341.04108,-80.913289)"
         id="path10797"
         style="fill:none;fill-opacity:1;fill-rule:evenodd;stroke:#000000;stroke-width:4;stroke-linecap:round;stroke-linejoin:round;stroke-miterlimit:4;stroke-dasharray:none;stroke-opacity:1"
         cx="181.04167"
         cy="267.29166"
         rx="28.958334"
         ry="25.625" />
      <path
         d="M -162.70605,101.84515 -163.53939,173.09515 C -162.42658,176.98999 -168.77306,181.54855 -176.45606,177.26181 -184.13905,172.97508 -178.83395,187.99808 -187.17094,194.70768 -195.50793,201.41728 -203.18241,194.43689 -198.68236,211.66029 -194.18231,228.88369 -198.94645,220.34183 -202.14133,229.21443 -205.33621,238.08703 -200.97987,243.79325 -188.40867,249.66071 -175.83747,255.52817 -200.23645,259.97904 -182.62948,269.55962 -165.02251,279.1402 -160.62272,282.26182 -160.62272,282.26182 V 340.17848"
         sodipodi:nodetypes="cczzzzzzcc"
         id="path10799"
         style="fill:none;fill-rule:evenodd;stroke:#0000ff;stroke-width:3;stroke-linecap:butt;stroke-linejoin:miter;stroke-miterlimit:4;stroke-dasharray:none;stroke-opacity:1;marker-mid:none;marker-end:url(#Arrow1Sendnz)" />
      <path
         d="M -160.45426,282.28782 C -94.762322,272.33447 -99.092522,187.15672 -148.63443,165.88963 L -149.22369,130.5343"
         sodipodi:nodetypes="ccc"
         id="path10805"
         style="fill:none;fill-rule:evenodd;stroke:#0000ff;stroke-width:3;stroke-linecap:butt;stroke-linejoin:miter;stroke-miterlimit:4;stroke-dasharray:none;stroke-opacity:1;marker-end:url(#Arrow1SendEz)" />
      <path
         d="M -162.00673,173.19508 C -156.11566,173.1017 -154.62621,173.44333 -149.25038,178.40954"
         sodipodi:nodetypes="cc"
         id="path10807"
         style="fill:none;fill-rule:evenodd;stroke:#000000;stroke-width:1px;stroke-linecap:butt;stroke-linejoin:miter;stroke-opacity:1;marker-end:url(#Arrow1Send)" />
      <path
         id="path10809"
         d="M -144.96391,174.51504 -151.07654,185.10243"
         style="fill:none;fill-rule:evenodd;stroke:#000000;stroke-width:1px;stroke-linecap:butt;stroke-linejoin:miter;stroke-opacity:1" />
      <path
         d="M -149.21744,166.24096 C -155.70069,159.21744 -197.13641,170.54244 -191.73987,183.16905 -186.34333,195.79566 -197.34421,190.31021 -202.87142,193.53158 -208.22639,196.65257 -219.3458,203.47213 -211.46617,214.23419 -203.72941,224.80113 -217.2333,227.04785 -216.17514,237.62166 -215.16747,247.69093 -209.72346,248.44775 -201.19248,252.23461 -192.16111,256.24359 -212.19814,269.95204 -195.41329,272.13352 -178.54317,274.32608 -173.40653,284.83572 -173.40653,284.83572 V 342.75238"
         sodipodi:nodetypes="czzzzzzcc"
         id="path10811"
         style="fill:none;fill-rule:evenodd;stroke:#0000ff;stroke-width:3;stroke-linecap:butt;stroke-linejoin:miter;stroke-miterlimit:4;stroke-dasharray:none;stroke-opacity:1;marker-mid:none;marker-end:url(#Arrow1SendnN)" />
    </g>
    <text
       xml:space="preserve"
       style="color:#000000;font-style:normal;font-variant:normal;font-weight:normal;font-stretch:normal;line-height:0%;font-family:Arial;text-indent:0;text-align:start;text-decoration:none;text-decoration-line:none;letter-spacing:normal;word-spacing:normal;text-transform:none;writing-mode:lr-tb;direction:ltr;text-anchor:start;display:inline;overflow:visible;visibility:visible;fill:#000000;fill-opacity:1;fill-rule:nonzero;stroke:none;stroke-width:1px;stroke-linecap:butt;stroke-linejoin:miter;stroke-miterlimit:4;stroke-dasharray:none;stroke-dashoffset:0;stroke-opacity:1;marker:none;marker-start:none;marker-mid:none;marker-end:none;enable-background:accumulate"
       x="185.37181"
       y="272.36752"
       id="text11718"><tspan
         sodipodi:role="line"
         id="tspan11720"
         x="185.37181"
         y="272.36752"
         style="font-size:17.3828px;line-height:0">slow</tspan></text>
    <text
       xml:space="preserve"
       style="color:#000000;font-style:normal;font-variant:normal;font-weight:normal;font-stretch:normal;line-height:0%;font-family:Arial;text-indent:0;text-align:start;text-decoration:none;text-decoration-line:none;letter-spacing:normal;word-spacing:normal;text-transform:none;writing-mode:lr-tb;direction:ltr;text-anchor:start;display:inline;overflow:visible;visibility:visible;fill:#000000;fill-opacity:1;fill-rule:nonzero;stroke:none;stroke-width:1px;stroke-linecap:butt;stroke-linejoin:miter;stroke-miterlimit:4;stroke-dasharray:none;stroke-dashoffset:0;stroke-opacity:1;marker:none;marker-start:none;marker-mid:none;marker-end:none;enable-background:accumulate"
       x="304.44553"
       y="272.36755"
       id="text11722"><tspan
         sodipodi:role="line"
         id="tspan11724"
         x="304.44553"
         y="272.36755"
         style="font-size:17.3828px;line-height:0">fast</tspan></text>
    <path
       style="fill:none;fill-rule:evenodd;stroke:#000000;stroke-width:2.17285;stroke-linecap:butt;stroke-linejoin:miter;stroke-miterlimit:4;stroke-dasharray:none;stroke-opacity:1"
       d="M 297.40346,547.64529 279.7985,547.32521 274.67704,549.0857 272.11632,502.51255 267.63506,547.96538 247.14927,547.9654 C 247.14927,547.9654 245.19656,541.56358 238.79475,541.24349 232.39294,540.9234 230.12014,548.68324 230.12014,548.68324 L 221.42483,548.5257"
       id="path11726"
       sodipodi:nodetypes="czccccccc" />
    <path
       style="fill:none;stroke:#000000;stroke-width:2.17285;stroke-linecap:butt;stroke-linejoin:miter;stroke-miterlimit:4;stroke-dasharray:none;stroke-opacity:1"
       d="M 510.16215,549.24573 492.55719,548.92565 487.91587,551.96651 484.87502,504.11299 480.39375,549.56583 446.87089,549.56584 C 446.87089,549.56584 444.08485,558.99736 438.51637,542.84393 432.11456,542.52384 429.84175,550.28368 429.84175,550.28368 L 421.14645,550.12614"
       id="path12797"
       sodipodi:nodetypes="czccccccc"
       inkscape:connector-curvature="0" />
    <path
       style="fill:none;stroke:#000000;stroke-width:2.17285;stroke-linecap:butt;stroke-linejoin:miter;stroke-miterlimit:4;stroke-dasharray:none;stroke-opacity:1"
       d="M 731.30131,549.96595 716.89725,550.44609 C 716.89725,550.44609 715.55943,566.48768 709.21507,562.44948 708.33363,547.86846 706.01417,504.8332 706.01417,504.8332 L 701.53291,550.28604 668.01004,550.28605 C 668.01004,550.28605 665.224,555.55091 659.65553,543.56414 653.25372,543.24405 650.98091,551.00389 650.98091,551.00389 L 642.2856,550.84635"
       id="path12799"
       sodipodi:nodetypes="ccccccccc"
       inkscape:connector-curvature="0" />
    <text
       xml:space="preserve"
       style="color:#000000;font-style:normal;font-variant:normal;font-weight:normal;font-stretch:normal;line-height:0%;font-family:Arial;text-indent:0;text-align:start;text-decoration:none;text-decoration-line:none;letter-spacing:normal;word-spacing:normal;text-transform:none;writing-mode:lr-tb;direction:ltr;text-anchor:start;display:inline;overflow:visible;visibility:visible;fill:#000000;fill-opacity:1;fill-rule:nonzero;stroke:none;stroke-width:1px;stroke-linecap:butt;stroke-linejoin:miter;stroke-miterlimit:4;stroke-dasharray:none;stroke-dashoffset:0;stroke-opacity:1;marker:none;marker-start:none;marker-mid:none;marker-end:none;enable-background:accumulate"
       x="715.65564"
       y="608.2981"
       id="text12801"><tspan
         sodipodi:role="line"
         id="tspan12803"
         x="715.65564"
         y="608.2981"
         style="font-size:16.3297px;line-height:0">atrial echo</tspan></text>
    <path
       style="fill:none;fill-rule:evenodd;stroke:#000000;stroke-width:2.17285;stroke-linecap:butt;stroke-linejoin:miter;stroke-miterlimit:4;stroke-dasharray:none;stroke-opacity:1;marker-end:url(#Arrow1Sendn)"
       d="M 726.78739,586.71517 711.69146,569.94179"
       id="path12805"
       sodipodi:nodetypes="cc" />
    <path
       style="fill:none;stroke:#000000;stroke-width:2.17285;stroke-linecap:butt;stroke-linejoin:miter;stroke-miterlimit:4;stroke-dasharray:none;stroke-opacity:1"
       d="M 895.66775,545.71887 881.26369,546.19901 C 881.26369,546.19901 879.92587,562.2406 873.58151,558.2024 872.70007,543.62139 870.38061,500.58612 870.38061,500.58612 L 865.89935,546.03896 832.37649,546.03897 C 832.37649,546.03897 828.7571,552.13716 824.02197,539.31707 817.62016,538.99697 815.34735,546.75682 815.34735,546.75682 L 806.65205,546.59927"
       id="path13874"
       sodipodi:nodetypes="ccccccccc"
       inkscape:connector-curvature="0" />
    <path
       style="fill:none;fill-rule:evenodd;stroke:#000000;stroke-width:2.17285;stroke-linecap:butt;stroke-linejoin:miter;stroke-miterlimit:4;stroke-dasharray:none;stroke-opacity:1"
       d="M 924.79596,546.35905 910.39191,546.8392 C 910.39191,546.8392 909.05408,562.88079 902.70972,558.84259 901.82829,544.26157 899.50883,501.22631 899.50883,501.22631 L 895.02756,546.67915"
       id="path13876"
       sodipodi:nodetypes="ccccc" />
    <path
       style="fill:none;fill-rule:evenodd;stroke:#000000;stroke-width:2.17285;stroke-linecap:butt;stroke-linejoin:miter;stroke-miterlimit:4;stroke-dasharray:none;stroke-opacity:1"
       d="M 954.06895,546.67914 939.6649,547.15928 C 939.6649,547.15928 938.32708,563.20087 931.98271,559.16267 931.10128,544.58166 928.78182,501.54639 928.78182,501.54639 L 924.30055,546.99923"
       id="path13880"
       sodipodi:nodetypes="ccccc" />
    <path
       style="fill:none;fill-rule:evenodd;stroke:#000000;stroke-width:2.17285;stroke-linecap:butt;stroke-linejoin:miter;stroke-miterlimit:4;stroke-dasharray:none;stroke-opacity:1"
       d="M 982.87709,547.31932 968.47303,547.79947 C 968.47303,547.79947 967.13521,563.84105 960.79085,559.80285 959.90942,545.22184 957.58996,502.18658 957.58996,502.18658 L 953.10869,547.63941"
       id="path13882"
       sodipodi:nodetypes="ccccc" />
    <text
       id="text3145"
       y="602.40552"
       x="450.4906"
       style="color:#000000;font-style:normal;font-variant:normal;font-weight:normal;font-stretch:normal;line-height:0%;font-family:Arial;text-indent:0;text-align:start;text-decoration:none;text-decoration-line:none;letter-spacing:normal;word-spacing:normal;text-transform:none;writing-mode:lr-tb;direction:ltr;text-anchor:start;display:inline;overflow:visible;visibility:visible;fill:#000000;fill-opacity:1;fill-rule:nonzero;stroke:none;stroke-width:1px;marker:none;enable-background:accumulate"
       xml:space="preserve"><tspan
         y="602.40552"
         x="450.4906"
         id="tspan3147"
         sodipodi:role="line"
         style="font-size:16.3297px;line-height:0">atrial premature beat</tspan></text>
    <path
       sodipodi:nodetypes="cc"
       id="path3149"
       d="M 461.62235,580.82261 446.52642,564.04923"
       style="fill:none;stroke:#000000;stroke-width:2.17285;stroke-linecap:butt;stroke-linejoin:miter;stroke-miterlimit:4;stroke-dasharray:none;stroke-opacity:1;marker-end:url(#Arrow1Sendn)"
       inkscape:connector-curvature="0" />
  </g>
</svg>
